HIERARCHY
ROOT Hips
{
	OFFSET -3.958830 18.904000 13.208200
	CHANNELS 6 Xposition Yposition Zposition Zrotation Yrotation Xrotation 
	JOINT LHipJoint
	{
		OFFSET 0.000000 0.000000 0.000000
		CHANNELS 3 Zrotation Yrotation Xrotation
		JOINT LeftUpLeg
		{
			OFFSET 1.800000 -1.400000 0.085000
			CHANNELS 3 Zrotation Yrotation Xrotation
			JOINT LeftLeg
			{
				OFFSET 2.215000 -6.000000 0.000000
				CHANNELS 3 Zrotation Yrotation Xrotation
				JOINT LeftFoot
				{
					OFFSET 2.500000 -6.900000 0.000000
					CHANNELS 3 Zrotation Yrotation Xrotation
					JOINT LeftToeBase
					{
						OFFSET 0.200000 -0.500000 1.950000
						CHANNELS 3 Zrotation Yrotation Xrotation
						End Site
						{
							OFFSET 0.000000 0.000000 0.000000
						}
					}
				}
			}
		}
	}
	JOINT RHipJoint
	{
		OFFSET 0.000000 0.000000 0.000000
		CHANNELS 3 Zrotation Yrotation Xrotation
		JOINT RightUpLeg
		{
			OFFSET -1.800000 -1.400000 0.085000
			CHANNELS 3 Zrotation Yrotation Xrotation
			JOINT RightLeg
			{
				OFFSET -2.215000 -6.000000 0.000000
				CHANNELS 3 Zrotation Yrotation Xrotation
				JOINT RightFoot
				{
					OFFSET -2.500000 -6.900000 0.000000
					CHANNELS 3 Zrotation Yrotation Xrotation
					JOINT RightToeBase
					{
						OFFSET -0.200000 -0.500000 1.950000
						CHANNELS 3 Zrotation Yrotation Xrotation
						End Site
						{
							OFFSET 0.000000 0.000000 0.000000
						}
					}
				}
			}
		}
	}
	JOINT LowerBack
	{
		OFFSET 0.000000 0.000000 0.000000
		CHANNELS 3 Zrotation Yrotation Xrotation
		JOINT Spine
		{
			OFFSET -0.087000 1.940000 -0.288900
			CHANNELS 3 Zrotation Yrotation Xrotation
			JOINT Spine1
			{
				OFFSET 0.000000 1.950000 0.060000
				CHANNELS 3 Zrotation Yrotation Xrotation
				JOINT Neck
				{
					OFFSET 0.000000 0.000000 0.000000
					CHANNELS 3 Zrotation Yrotation Xrotation
					JOINT Neck1
					{
						OFFSET 0.000000 1.600000 0.340000
						CHANNELS 3 Zrotation Yrotation Xrotation
						JOINT Head
						{
							OFFSET 0.000000 1.667000 -0.240000
							CHANNELS 3 Zrotation Yrotation Xrotation
							End Site
							{
								OFFSET 0.000000 0.000000 0.000000
							}
						}
					}
				}
				JOINT LeftShoulder
				{
					OFFSET 0.000000 0.000000 0.000000
					CHANNELS 3 Zrotation Yrotation Xrotation
					JOINT LeftArm
					{
						OFFSET 2.700000 1.550000 -0.730000
						CHANNELS 3 Zrotation Yrotation Xrotation
						JOINT LeftForeArm
						{
							OFFSET 5.450000 0.000000 0.000000
							CHANNELS 3 Zrotation Yrotation Xrotation
							JOINT LeftHand
							{
								OFFSET 3.450000 0.000000 0.000000
								CHANNELS 3 Zrotation Yrotation Xrotation
								JOINT LeftHandIndex1
								{
									OFFSET 0.750000 0.000000 0.000000
									CHANNELS 3 Zrotation Yrotation Xrotation
									End Site
									{
										OFFSET 0.000000 0.000000 0.000000
									}
								}
							}
						}
					}
				}
				JOINT RightShoulder
				{
					OFFSET 0.000000 0.000000 0.000000
					CHANNELS 3 Zrotation Yrotation Xrotation
					JOINT RightArm
					{
						OFFSET -2.700000 1.550000 -0.730000
						CHANNELS 3 Zrotation Yrotation Xrotation
						JOINT RightForeArm
						{
							OFFSET -5.450000 0.000000 0.000000
							CHANNELS 3 Zrotation Yrotation Xrotation
							JOINT RightHand
							{
								OFFSET -3.450000 0.000000 0.000000
								CHANNELS 3 Zrotation Yrotation Xrotation
								JOINT RightHandIndex1
								{
									OFFSET -0.750000 0.000000 0.000000
									CHANNELS 3 Zrotation Yrotation Xrotation
									End Site
									{
										OFFSET 0.000000 0.000000 0.000000
									}
								}
							}
						}
					}
				}
			}
		}
	}
}
MOTION
Frames: 9
Frame Time: 0.016667
0.018680 17.072110 -3.901420 -11.039864 -8.970459 -7.431948 -15.433281 12.318953 1.594833 20.795252 -2.791400 -14.908762 -4.572224 10.306324 34.367212 -0.655353 7.727016 2.088214 0.252860 -0.212110 -0.096410 18.600152 -6.577496 7.045317 -22.516086 10.289984 -69.724411 13.759652 -39.008323 90.936258 -3.853454 -18.072605 -0.409199 -0.052110 0.649850 0.144680 -3.693237 -4.589375 -9.207260 15.636985 -13.667955 50.977694 -4.168109 -7.629702 -0.038226 2.939771 -8.489021 -10.449082 -15.787368 9.019822 21.746823 -4.837290 5.198350 -28.937860 -24.175484 -8.531200 3.509911 -18.762520 11.933597 -11.261744 165.830986 -60.177886 -173.471774 -3.714900 2.960273 1.149450 0.189260 -0.190400 0.381440 19.104066 11.485453 8.479204 31.698298 -14.036072 -15.496920 43.695455 66.367791 21.361599 1.247886 -1.578839 -0.641330 0.692260 0.286460 -0.360230 
0.082380 16.977680 -3.899060 -9.450863 -10.312491 -8.543287 -15.514009 12.413344 1.713944 19.289498 -3.153360 -15.285500 -4.998836 11.237041 38.065425 -0.438761 8.274735 1.899844 0.326420 -0.121890 -0.085330 18.526549 -6.417194 7.020213 -23.360702 10.580516 -68.997118 12.221549 -37.935450 92.795305 -3.894831 -18.080720 -0.405482 -0.044750 0.605110 0.188410 -3.490395 -5.060317 -9.277036 13.499228 -12.431441 53.937161 -2.530260 -7.380587 -2.709916 2.862737 -9.116405 -10.615787 -17.242922 9.683340 21.598007 -4.623100 4.521320 -29.725880 -25.029751 -9.434339 3.239097 -19.514180 11.918205 -12.576259 -178.668100 -70.804980 164.083800 -3.546061 3.004919 1.142620 0.146720 -0.129400 0.435490 20.275430 13.262235 8.841478 32.071292 -11.997003 -15.309504 44.605015 67.468454 22.392584 1.308706 -1.617136 -0.558370 0.640790 0.219420 -0.310690 
0.129930 16.887680 -3.880580 -8.279573 -11.334992 -9.055754 -15.554453 12.483522 1.901510 18.156384 -3.569027 -16.087612 -5.565580 12.128911 40.966910 -0.239928 8.735533 1.744636 0.348430 -0.102850 -0.038450 18.478443 -6.384785 6.864973 -22.690361 11.122691 -67.734449 9.228646 -35.299056 94.412822 -3.807922 -17.747460 -0.346197 -0.061610 0.531420 0.155300 -3.377917 -5.378341 -9.333554 12.878014 -12.050489 54.328204 -1.745406 -7.302408 -4.993990 2.882214 -9.696730 -10.965273 -19.263022 10.487649 23.802540 -5.296610 4.410040 -28.775040 -25.174945 -10.963472 2.672201 -21.651686 11.154835 -14.752824 -116.659485 -79.910864 97.031269 -3.659416 1.634778 1.136520 0.085930 -0.094210 0.434800 20.367701 15.533061 9.456300 34.566910 -9.094464 -15.650968 42.782921 65.787753 20.541144 1.409468 -1.567804 -0.524160 0.613890 0.163790 -0.304020 
0.171180 16.806670 -3.828200 -7.033739 -12.882576 -9.476681 -15.570753 12.577962 2.063678 17.013264 -3.687827 -16.337804 -6.019598 12.966119 43.286977 -0.046554 9.103268 1.609628 0.397160 -0.047120 0.001710 18.432468 -6.474850 6.682884 -21.724144 11.997552 -65.655581 6.559423 -32.511611 95.469833 -3.731893 -17.334596 -0.264496 -0.070680 0.449950 0.151350 -3.294565 -5.513135 -9.385577 12.472171 -11.453786 52.886631 -1.448490 -7.118701 -5.566500 3.200934 -9.844943 -12.198585 -21.007023 11.781717 27.541532 -5.255970 4.808950 -27.697990 -25.852584 -12.797524 4.517616 -23.978908 9.753509 -12.903767 -46.994127 -75.258504 27.693875 -3.241579 3.267197 1.142740 0.023800 -0.034560 0.447270 20.613395 17.919894 9.492241 36.935550 -5.890596 -16.227307 39.280447 63.426149 17.491254 1.476042 -1.508992 -0.462650 0.568140 0.105280 -0.290030 
0.194980 16.732230 -3.726000 -5.703631 -13.400411 -9.310408 -15.574076 12.728143 2.223747 15.455274 -3.824110 -16.943267 -5.893583 13.300883 45.017735 0.066436 9.297933 1.530194 0.412670 -0.006960 0.030890 18.383021 -6.675058 6.409582 -20.764083 11.991600 -62.679887 3.536559 -29.418991 95.958802 -3.602632 -16.791588 -0.148121 -0.074370 0.399070 0.155870 -3.199831 -5.650124 -9.402306 12.474001 -10.901619 49.011697 -1.362970 -6.976005 -5.861629 3.500017 -8.985584 -12.696822 -20.446797 11.920915 32.047980 -7.140410 5.737650 -25.831450 -26.643097 -14.647440 4.875580 -26.486882 8.080040 -12.718730 -28.690233 -59.475086 10.734724 -3.196994 3.097086 1.129040 0.019480 0.011530 0.442650 20.697143 19.548340 9.568735 39.569433 -3.127993 -16.440816 34.545050 59.587143 13.491767 1.509544 -1.419900 -0.419850 0.544770 0.078320 -0.289360 
0.225890 16.665490 -3.606760 -5.013327 -14.757970 -9.033405 -15.504391 12.871257 2.409633 14.625135 -3.600219 -16.869132 -6.365657 14.018161 46.370757 0.193144 9.599089 1.415348 0.410730 0.005140 0.043430 18.370853 -7.115830 5.966196 -18.833443 12.377468 -57.645613 1.237117 -25.842399 94.304226 -3.400625 -15.985252 0.009902 -0.087470 0.375690 0.172040 -3.265276 -5.420188 -9.319318 14.266720 -10.908127 44.177573 -2.521648 -6.598272 -5.305640 3.809540 -8.345379 -13.724366 -20.608594 12.590492 36.659609 -8.112090 6.613780 -22.810140 -27.581731 -16.829758 5.689406 -28.229433 5.820297 -10.372044 -20.249979 -42.290522 3.949298 -3.231563 2.919756 1.107830 0.028800 0.041280 0.427520 20.919907 21.566540 9.924635 41.974674 -0.960986 -16.613269 32.464720 56.981464 11.277816 1.537802 -1.356620 -0.379200 0.526830 0.081700 -0.284260 
0.206410 16.609890 -3.478830 -3.783978 -15.946454 -8.597247 -15.435152 13.006902 2.613647 13.982634 -3.218524 -16.632501 -7.543325 14.985318 46.721115 0.214387 9.930885 1.309743 0.389050 -0.044700 0.054140 18.353905 -7.602983 5.466196 -16.996196 12.554430 -52.061605 -0.505730 -22.104926 91.307073 -3.115802 -15.060949 0.193053 -0.074900 0.422540 0.160650 -3.312422 -5.141920 -9.204088 14.699588 -10.031162 38.133501 -2.576314 -6.181159 -3.528431 3.463170 -7.938792 -14.352183 -20.578764 13.240142 39.688789 -7.605300 7.248150 -18.294480 -28.508390 -18.309133 6.598529 -29.893902 3.522709 -6.478360 -15.058274 -26.353284 0.645888 -3.381764 2.691019 1.099480 0.084710 -0.008850 0.402390 22.480972 22.887844 9.796467 42.187097 1.646583 -15.602398 32.554336 54.629532 10.511553 1.522494 -1.328392 -0.426940 0.552860 0.119640 -0.317500 
0.155370 16.563590 -3.355140 -2.116533 -17.260748 -7.776993 -15.385969 13.104640 2.843588 13.430875 -2.789424 -16.459391 -9.491697 16.140990 46.076081 0.288206 10.205453 1.233496 0.309740 -0.149090 0.032230 18.320985 -8.088620 4.961693 -15.643915 12.228668 -46.575876 -0.762239 -18.999501 85.935548 -2.756917 -14.001124 0.395932 -0.112380 0.491040 0.203680 -3.300612 -4.807642 -9.121081 13.608308 -8.358894 31.508547 -2.165700 -5.500979 -0.854295 3.286220 -6.811496 -14.317795 -17.781406 12.783766 41.249121 -9.133710 9.012280 -13.166100 -28.377925 -18.861642 7.424910 -32.103462 1.266122 -2.652988 -10.670384 -13.843517 -0.793558 -3.623233 2.564638 1.027280 0.189220 -0.072830 0.364940 22.566339 23.057383 9.353715 43.694930 4.897332 -14.299240 33.245156 55.036495 10.874643 1.533269 -1.359153 -0.440150 0.513080 0.177380 -0.331530 
0.096690 16.545390 -3.240670 -0.720564 -18.675335 -7.084746 -15.275266 13.187200 3.023063 12.910171 -2.194290 -15.811063 -11.393086 17.019031 44.740131 0.315512 10.343074 1.225883 0.253070 -0.228220 -0.015800 18.339596 -8.767366 4.315558 -14.296564 11.335747 -39.821419 -0.234251 -16.038949 77.941810 -2.297222 -12.589009 0.729121 -0.119010 0.593000 0.210530 -3.455664 -4.179466 -8.833983 13.491219 -7.195758 25.067985 -2.603124 -4.955505 2.487645 2.923696 -6.905597 -14.353300 -17.391563 13.247701 40.523602 -8.636320 9.934190 -8.766070 -26.664551 -19.033044 8.279182 -35.028433 -0.123615 -0.087510 -7.047250 -5.843713 -1.189855 -3.814437 2.518202 0.965500 0.284400 -0.164990 0.365260 21.494603 23.571948 9.253469 46.217100 9.047755 -12.541576 34.768249 57.761084 12.232176 1.526357 -1.416728 -0.484330 0.513850 0.217810 -0.331350 
